<?xml version="1.0" encoding="utf-8"?>
<!-- Generator: Adobe Illustrator 18.0.0, SVG Export Plug-In . SVG Version: 6.00 Build 0)  -->
<!DOCTYPE svg PUBLIC "-//W3C//DTD SVG 1.0//EN" "http://www.w3.org/TR/2001/REC-SVG-20010904/DTD/svg10.dtd">
<svg version="1.0" id="Layer_1" xmlns:sketch="http://www.bohemiancoding.com/sketch/ns"
	 xmlns="http://www.w3.org/2000/svg" xmlns:xlink="http://www.w3.org/1999/xlink" x="0px" y="0px" viewBox="120 42 148 52"
	 enable-background="new 120 42 148 52" xml:space="preserve">
<rect y="-5" display="none" fill="#231F20" width="389" height="147"/>
<g id="npr-logo" transform="translate(2.000000, 2.000000)" sketch:type="MSLayerGroup">
	<path id="Shape" sketch:type="MSShapeGroup" fill="#FFFFFF" d="M148.2,78.4V64c0-2.1-0.4-3.7-1.2-4.6c-0.8-1-2.1-1.5-4-1.5
		c-0.9,0-1.8,0.2-2.7,0.7c-1,0.5-1.7,1.1-2.3,1.8v18h-5.8V53.4h4.2l1.1,2.3c1.6-1.8,3.9-2.7,7-2.7c3,0,5.3,0.9,7,2.7
		c1.7,1.8,2.6,4.3,2.6,7.4v15.3L148.2,78.4L148.2,78.4z"/>
	<path id="Shape_1_" sketch:type="MSShapeGroup" fill="#FFFFFF" d="M190.4,58c2.7,0,4.6,0.6,5.7,1.8c1.2,1.2,1.7,3.3,1.7,6.2
		c0,2.8-0.6,4.8-1.8,6c-1.2,1.3-3.1,1.9-5.8,1.9c-1.4,0-2.6-0.4-3.7-1.3V59.6C187.8,58.5,189,58,190.4,58L190.4,58z M191.7,78.9
		c3.8,0,6.8-1.1,9-3.3c2.2-2.2,3.3-5.3,3.3-9.4c0-8.7-4-13.1-11.9-13.1c-2.1,0-3.9,0.7-5.4,2.1v-1.7h-5.8v34.7h5.8V77.8
		C188.2,78.5,189.9,78.9,191.7,78.9L191.7,78.9z"/>
	<path id="Shape_2_" sketch:type="MSShapeGroup" fill="#FFFFFF" d="M247.3,58.9c-1-0.7-2.2-1-3.4-1c-1.3,0-2.5,0.6-3.6,1.8
		c-1,1.2-1.6,2.7-1.6,4.5v14.2h-5.8V53.4h5.8v2.4c1.6-1.9,3.8-2.8,6.5-2.8c2,0,3.5,0.3,4.5,0.9L247.3,58.9L247.3,58.9z"/>
	<path id="Shape_3_" sketch:type="MSShapeGroup" fill="none" stroke="#FFFFFF" stroke-width="2" d="M168,42v49"/>
	<path id="Shape_4_" sketch:type="MSShapeGroup" fill="none" stroke="#FFFFFF" stroke-width="2" d="M216,42v49"/>
	
		<rect id="Rectangle-path" x="119" y="41" sketch:type="MSShapeGroup" fill="none" stroke="#FFFFFF" stroke-width="2" width="146" height="50">
	</rect>
</g>
<title>npr-logo</title>
<desc>Created with Sketch.</desc>
</svg>
